<svg id="SvgjsSvg1001" width="288" height="288" xmlns="http://www.w3.org/2000/svg" version="1.1" xmlns:xlink="http://www.w3.org/1999/xlink" xmlns:svgjs="http://svgjs.com/svgjs"><defs id="SvgjsDefs1002"></defs><g id="SvgjsG1008" transform="matrix(1,0,0,1,0,0)"><svg xmlns="http://www.w3.org/2000/svg" width="288" height="288" enable-background="new 0 0 459.325 459.325" viewBox="0 0 459.325 459.325"><path d="M459.319,229.668c0,22.201-17.992,40.193-40.205,40.193H269.85v149.271c0,22.207-17.998,40.199-40.196,40.193
		c-11.101,0-21.149-4.492-28.416-11.763c-7.276-7.281-11.774-17.324-11.769-28.419l-0.006-149.288H40.181
		c-11.094,0-21.134-4.492-28.416-11.774c-7.264-7.264-11.759-17.312-11.759-28.413C0,207.471,17.992,189.475,40.202,189.475h149.267
		V40.202C189.469,17.998,207.471,0,229.671,0c22.192,0.006,40.178,17.986,40.19,40.187v149.288h149.282
		C441.339,189.487,459.308,207.471,459.319,229.668z" fill="#ff2800" class="color000 svgShape"></path></svg></g></svg>